<svg width="6" height="10" viewBox="0 0 6 10" fill="none" xmlns="http://www.w3.org/2000/svg">
<path d="M0.369764 0.397697C0.615769 0.132591 0.914571 0 1.26615 0H3.79711C4.14869 0 4.44747 0.132591 4.69349 0.397697C4.9395 0.662878 5.0625 0.984802 5.0625 1.36367V4.0909C5.0625 4.46974 4.9395 4.79164 4.69349 5.05675C4.44747 5.32183 4.14866 5.45447 3.79711 5.45447H2.32069C2.14498 5.45447 1.99543 5.52079 1.87241 5.65333C1.7495 5.78587 1.68786 5.94687 1.68786 6.13635V6.3635C1.68786 6.86543 1.85267 7.2938 2.18227 7.64898C2.5118 8.00399 2.90934 8.18156 3.37524 8.18156H3.79711C3.91134 8.18156 4.01026 8.22666 4.0937 8.31656C4.1772 8.40647 4.21901 8.51303 4.21901 8.63615V9.54535C4.21901 9.66826 4.1772 9.77503 4.0937 9.86496C4.01029 9.95484 3.91136 9.99996 3.79711 9.99996H3.37524C2.91827 9.99996 2.48218 9.90394 2.06686 9.71224C1.65168 9.52052 1.29253 9.26121 0.9893 8.93449C0.686089 8.60774 0.445347 8.22066 0.267516 7.77329C0.0896153 7.32594 0.000573158 6.85593 0.000573158 6.36353V1.36357C0.0006423 0.984703 0.123575 0.662779 0.369764 0.397697Z" fill="#F6762C"/>
</svg>
